<?xml version="1.0" encoding="utf-8"?>
<!-- Uploaded to: SVG Repo, www.svgrepo.com, Generator: SVG Repo Mixer Tools -->
<svg width="800px" height="800px" viewBox="0 0 1024 1024" class="icon"  version="1.1" xmlns="http://www.w3.org/2000/svg"><path d="M589.269554 846.607772h-127.166558c-57.843378 0-104.72811-46.889852-104.72811-104.728111V435.178908h336.622778V741.879661c0 57.838258-46.8919 104.72811-104.72811 104.728111z" fill="#FDD72C" /><path d="M600.490313 435.178908V741.879661c0 57.838258-46.8919 104.72811-104.726063 104.728111h61.087047c57.840306 0 104.726063-46.889852 104.726062-104.728111V435.178908h-61.087046z" fill="#EC8621" /><path d="M608.58515 507.488761a7.48153 7.48153 0 1 1-14.958964-0.004095 7.48153 7.48153 0 0 1 14.958964 0.004095zM643.651175 599.126498a8.880157 8.880157 0 0 1-8.883229 8.881181c-4.901339 0-8.885277-3.975747-8.885277-8.881181s3.983938-8.885277 8.885277-8.885277a8.883229 8.883229 0 0 1 8.883229 8.885277z" fill="#FDD72C" /><path d="M601.104644 778.656598m-7.948421 0a7.948422 7.948422 0 1 0 15.896843 0 7.948422 7.948422 0 1 0-15.896843 0Z" fill="#FDD72C" /><path d="M607.234646 804.83837a6.125906 6.125906 0 0 1-6.130002 6.130002 6.128978 6.128978 0 1 1 6.130002-6.130002z" fill="#FDD72C" /><path d="M560.597693 856.321372H433.429088c-63.105124 0-114.441711-51.33761-114.441711-114.441711V425.464284h356.051003v147.479418a9.712576 9.712576 0 0 1-9.7136 9.7136 9.712576 9.712576 0 0 1-9.7136-9.7136V444.892508H338.414578V741.879661c0 52.391188 42.622298 95.01451 95.01451 95.014511h127.168605c52.38914 0 95.012463-42.622298 95.012463-95.014511v-74.494824a9.712576 9.712576 0 0 1 9.7136-9.7136 9.712576 9.712576 0 0 1 9.7136 9.7136v74.494824c0 63.1041-51.33761 114.441711-114.439663 114.441711z" fill="" /><path d="M665.323756 636.89046a9.712576 9.712576 0 0 1-9.7136-9.7136V612.214824a9.712576 9.712576 0 0 1 9.7136-9.7136 9.712576 9.712576 0 0 1 9.7136 9.7136v14.961012c0 5.365159-4.348441 9.714624-9.7136 9.714624z" fill="" /><path d="M871.988865 850.347001h75.271954" fill="#FEDEBB" /><path d="M947.261843 860.061625h-75.271954a9.712576 9.712576 0 0 1-9.7136-9.7136 9.712576 9.712576 0 0 1 9.7136-9.7136h75.271954a9.712576 9.712576 0 0 1 9.7136 9.7136c0 5.364135-4.349465 9.7136-9.7136 9.7136z" fill="" /><path d="M801.85784 850.347001h21.506711" fill="#FEDEBB" /><path d="M823.364551 860.061625h-21.506711a9.712576 9.712576 0 0 1-9.7136-9.7136 9.712576 9.712576 0 0 1 9.7136-9.7136h21.506711a9.712576 9.712576 0 0 1 9.7136 9.7136 9.7136 9.7136 0 0 1-9.7136 9.7136z" fill="" /><path d="M165.080007 850.347001h588.155567" fill="#FEDEBB" /><path d="M753.235574 860.061625H165.080007a9.712576 9.712576 0 0 1-9.7136-9.7136 9.712576 9.712576 0 0 1 9.7136-9.7136h588.155567a9.712576 9.712576 0 0 1 9.7136 9.7136c0.001024 5.364135-4.348441 9.7136-9.7136 9.7136z" fill="" /><path d="M75.780825 850.347001h34.597085" fill="#FEDEBB" /><path d="M110.37791 860.061625H75.780825a9.712576 9.712576 0 0 1-9.713601-9.7136 9.712576 9.712576 0 0 1 9.713601-9.7136h34.597085a9.712576 9.712576 0 0 1 9.7136 9.7136c0.001024 5.364135-4.348441 9.7136-9.7136 9.7136z" fill="" /><path d="M643.653223 174.619547m-7.951494 0a7.951493 7.951493 0 1 0 15.902987 0 7.951493 7.951493 0 1 0-15.902987 0Z" fill="#FD5C1E" /><path d="M778.701649 364.673141c0 4.780521-3.878478 8.660022-8.655926 8.660022-4.78564 0-8.666165-3.878478-8.666166-8.660022 0-4.779497 3.880525-8.657974 8.666166-8.657975 4.776425 0 8.655927 3.878478 8.655926 8.657975z" fill="#FD5C1E" /><path d="M209.678404 439.471035a7.480506 7.480506 0 1 1-14.959988 0.001024 7.480506 7.480506 0 0 1 14.959988-0.001024z" fill="#FED62C" /><path d="M147.600237 386.226951c-10.129298 0-18.369527-8.240229-18.369527-18.369527 0-10.12725 8.240229-18.367479 18.369527-18.367479 10.12725 0 18.367479 8.240229 18.367479 18.367479 0 10.129298-8.240229 18.369527-18.367479 18.369527z m0-32.419281c-7.748764 0-14.051802 6.303038-14.051802 14.049754 0 7.748764 6.303038 14.051802 14.051802 14.051802 7.746716 0 14.049754-6.303038 14.049754-14.051802 0-7.746716-6.303038-14.049754-14.049754-14.049754z" fill="#FD5C1E" /><path d="M856.844577 324.257315c-11.664102 0-21.152447-9.488345-21.152447-21.151423 0-11.66103 9.488345-21.148351 21.152447-21.148351 11.666149 0 21.15859 9.487321 21.158591 21.148351 0 11.663078-9.492441 21.151423-21.158591 21.151423z m0-37.98205c-9.28152 0-16.834723 7.55013-16.834722 16.830627 0 9.28152 7.553202 16.833699 16.834722 16.833699 9.285616 0 16.840866-7.552178 16.840866-16.833699 0.001024-9.280497-7.554226-16.830627-16.840866-16.830627zM503.391172 241.322604a5.141952 5.141952 0 0 1-5.144-5.142976v-5.144a5.60782 5.60782 0 0 0-5.611915-5.610892 5.611915 5.611915 0 0 0-5.60782 5.610892v5.144a5.144 5.144 0 0 1-5.146048 5.142976h-5.141952a5.610892 5.610892 0 0 0 0 11.220759h5.141952a5.144 5.144 0 0 1 5.146048 5.144v5.142976a5.610892 5.610892 0 0 0 5.60782 5.610892 5.606796 5.606796 0 0 0 5.611915-5.610892v-5.142976a5.141952 5.141952 0 0 1 5.144-5.144h5.141952a5.609868 5.609868 0 1 0 0-11.220759h-5.141952z" fill="#2BA9FC" /><path d="M338.599901 196.031037a2.944694 2.944694 0 0 1-2.944694-2.947766v-2.947766a3.213976 3.213976 0 1 0-6.427952 0v2.947766a2.949814 2.949814 0 0 1-2.950838 2.947766h-2.944694a3.215 3.215 0 0 0 0 6.428975h2.944694a2.94879 2.94879 0 0 1 2.950838 2.946742v2.947766a3.212952 3.212952 0 1 0 6.427952 0v-2.947766a2.942646 2.942646 0 0 1 2.944694-2.946742h2.946742a3.219095 3.219095 0 0 0 3.219095-3.214999 3.218072 3.218072 0 0 0-3.219095-3.213976h-2.946742z" fill="#FD5C1E" /><path d="M656.813221 275.668837a6.294847 6.294847 0 0 1-6.296895-6.293823v-6.296895c0-3.788376-3.069608-6.863103-6.866175-6.863103a6.867199 6.867199 0 0 0-6.868223 6.863103v6.296895a6.28768 6.28768 0 0 1-6.288703 6.293823H624.194282c-3.790423 0-6.866175 3.071656-6.866175 6.867199a6.866175 6.866175 0 0 0 6.866175 6.867199h6.298943a6.288704 6.288704 0 0 1 6.288703 6.292799v6.293823a6.866175 6.866175 0 0 0 6.868223 6.861056 6.862079 6.862079 0 0 0 6.866175-6.861056v-6.293823a6.293823 6.293823 0 0 1 6.296895-6.292799h6.290751a6.860032 6.860032 0 0 0 6.866175-6.867199 6.860032 6.860032 0 0 0-6.866175-6.867199h-6.290751z" fill="#FED62C" /><path d="M228.665333 262.054234a3.445374 3.445374 0 0 0-3.448445 3.451517l-0.004096 15.169885c0 1.902379 1.545043 3.440255 3.452541 3.450494a3.460732 3.460732 0 0 0 3.448446-3.450494V265.506775a3.44947 3.44947 0 0 0-3.448446-3.452541zM228.665333 314.464876a3.44947 3.44947 0 0 0-3.452541 3.442302l0.004096 15.176029a3.447422 3.447422 0 0 0 3.448445 3.448445 3.447422 3.447422 0 0 0 3.448446-3.448445v-15.176029a3.450494 3.450494 0 0 0-3.448446-3.442302zM213.061321 288.572864a3.440255 3.440255 0 0 0 4.871647-0.007167 3.445374 3.445374 0 0 0 0-4.875742l-10.728271-10.725199a3.438207 3.438207 0 0 0-4.875742 0c-1.343338 1.344361-1.351529 3.532404 0 4.87267l10.732366 10.735438zM244.269346 310.017118a3.445374 3.445374 0 0 0-4.873694 0.008191 3.436159 3.436159 0 0 0 0 4.873694l10.72827 10.730319a3.458685 3.458685 0 0 0 4.875742 0c1.345385-1.351529 1.351529-3.539572 0-4.88291l-10.730318-10.729294zM213.491353 299.296015a3.450494 3.450494 0 0 0-3.455613-3.445374h-15.165789a3.445374 3.445374 0 0 0-3.448446 3.445374 3.44947 3.44947 0 0 0 3.448446 3.448446h15.171932a3.453565 3.453565 0 0 0 3.44947-3.448446zM262.457645 295.850641h-15.171933a3.447422 3.447422 0 1 0 0 6.89382h15.171933a3.44947 3.44947 0 0 0 3.448446-3.448446 3.441279 3.441279 0 0 0-3.448446-3.445374zM213.061321 310.025309l-10.732366 10.721103a3.461756 3.461756 0 0 0 0 4.88291 3.454589 3.454589 0 0 0 4.875742 0l10.728271-10.730319a3.450494 3.450494 0 0 0 0-4.882909 3.443326 3.443326 0 0 0-4.871647 0.009215zM244.269346 288.572864l10.730318-10.735438a3.445374 3.445374 0 0 0 0-4.87267 3.438207 3.438207 0 0 0-4.875742 0l-10.72827 10.72827a3.447422 3.447422 0 0 0 0 4.879838 3.441279 3.441279 0 0 0 4.873694 0z" fill="#FED62C" /><path d="M442.147471 660.839138m-16.206056 0a16.206057 16.206057 0 1 0 32.412113 0 16.206057 16.206057 0 1 0-32.412113 0Z" fill="" /><path d="M561.836594 660.839138m-16.206057 0a16.206057 16.206057 0 1 0 32.412114 0 16.206057 16.206057 0 1 0-32.412114 0Z" fill="" /><path d="M530.990001 700.66111c1.013646-4.005439-2.426608-7.403715-6.560033-7.403715h-44.883037c-4.127282 0-7.576751 3.398275-6.55389 7.403715 3.294863 12.943958 15.028589 22.51831 28.994384 22.51831 13.967844 0 25.707713-9.575376 29.002576-22.51831z" fill="" /><path d="M487.400131 711.957637a14.588318 7.479482 0 1 0 29.176636 0 14.588318 7.479482 0 1 0-29.176636 0Z" fill="#F27E38" /><path d="M390.526245 453.094853v-2.574047" fill="#FFFFFF" /><path d="M390.526245 458.491753a5.395876 5.395876 0 0 1-5.396899-5.3969v-2.574047a5.395876 5.395876 0 1 1 10.793799 0v2.574047a5.3969 5.3969 0 0 1-5.3969 5.3969z" fill="" /><path d="M464.219367 461.565457c0 18.040859-15.829267 32.657846-35.355784 32.657846-19.51423 0-35.343498-14.616987-35.343497-32.657846v-52.773098c0-18.040859 15.829267-32.655799 35.343497-32.655798 19.526517 0 35.355784 14.614939 35.355784 32.655798v52.773098z" fill="#FFFFFF" /><path d="M467.354504 396.114611c0 30.758539-16.326875 55.695266-36.467723 55.695266h-78.970228c-20.140848 0-36.467724-24.936727-36.467723-55.695266 0-30.754444 16.326875-55.686051 36.467723-55.686051h78.970228c20.140848-0.001024 36.467724 24.931608 36.467723 55.686051z" fill="#FFFFFF" /><path d="M464.205033 445.65735c0.044027-0.225255 0.103412-0.459725 0.162798-0.689074 1.964836-7.983234 6.924536-10.881853 15.472955-10.881854h192.914329l-0.175084-38.863615c0-21.367463-16.729262-38.518566-38.104916-38.518566H465.907754c-2.133777 0-4.42728-1.640264-5.333418-3.579503-6.077783-13.011535-18.869183-21.995105-33.705281-21.995105-16.167149 0-29.892332 10.662742-35.160222 25.574608" fill="#FFFFFF" /><path d="M464.211176 451.05425a5.3969 5.3969 0 0 1-5.301678-6.436143c0.063481-0.324572 0.145392-0.66143 0.22935-0.993169 2.470635-10.032028 9.245684-14.935415 20.700914-14.935415h187.492857l-0.149488-33.442143c0-18.596829-14.366135-33.147264-32.70904-33.147263H465.907754c-4.178476 0-8.381525-2.75118-10.221447-6.691091-5.440927-11.648743-16.482506-18.883517-28.817252-18.883517-13.344297 0-25.427168 8.831011-30.071512 21.976675a5.403043 5.403043 0 0 1-6.886653 3.290767 5.397923 5.397923 0 0 1-3.290767-6.886653c6.16379-17.44803 22.33913-29.173565 40.248932-29.173564 16.571584 0 31.361607 9.62145 38.594333 25.10874 0.091126 0.155631 0.436175 0.430032 0.623546 0.48225l168.387157-0.016382c24.394068 0 43.501816 19.291023 43.501816 43.915465l0.200681 44.260515h-198.336826c-7.240917 0-9.127938 2.281217-10.23271 6.775049-0.046075 0.181228-0.081911 0.312285-0.107508 0.438223a5.3969 5.3969 0 0 1-5.288368 4.357656z" fill="" /><path d="M389.377446 434.086422v23.380422c0 21.542547 16.780457 39.006959 37.491609 39.006959 11.798231 0 22.315581-5.666181 29.189946-14.524837" fill="#FFFFFF" /><path d="M426.869055 501.870702c-23.647655 0-42.888508-19.918665-42.888509-44.403858v-23.380422a5.395876 5.395876 0 1 1 10.793799 0v23.380422c0 18.534372 14.397875 33.611084 32.09471 33.611083 9.707457 0 18.793415-4.53274 24.927512-12.437135a5.397923 5.397923 0 0 1 8.525893 6.619419c-8.19313 10.556258-20.385557 16.610492-33.453405 16.610491z" fill="" /><path d="M359.377606 338.667477a36.116531 36.116531 0 0 0-8.227943-0.953237c-21.095109 0-38.204233 14.640536-38.204233 37.306286v61.572368c0 22.667797 17.109124 41.047563 38.204233 41.047562 13.945318 0 26.153103-8.036476 32.82474-20.030268" fill="#FFFFFF" /><path d="M351.149663 483.037356c-24.042875 0-43.601133-20.836066-43.601132-46.444462v-61.572368c0-24.744237 18.335738-42.703185 43.601132-42.703186 3.163806 0 6.345017 0.368599 9.454557 1.094534a5.398947 5.398947 0 0 1 4.028989 6.482218 5.399971 5.399971 0 0 1-6.482218 4.028989 30.881405 30.881405 0 0 0-7.001328-0.811941c-19.316621 0-32.807334 13.122114-32.807333 31.909386v61.572368c0 19.657574 14.718352 35.651687 32.807333 35.651687 11.590382 0 22.096469-6.450478 28.108724-17.256564a5.392804 5.392804 0 0 1 7.338186-2.092821 5.393828 5.393828 0 0 1 2.092822 7.338186c-7.822484 14.066137-22.208073 22.803974-37.539732 22.803974z" fill="" /><path d="M396.639864 447.036524c0 8.484938-3.973699 15.361352-8.883229 15.361351-4.901339 0-8.875038-3.684963-8.875038-15.361351 0-22.452781 3.973699-18.247684 8.875038-18.247684 4.90953 0 8.883229 9.762747 8.883229 18.247684zM715.72963 539.200538h-39.193306V562.351609l31.340106 0.069624c30.069464 0 57.798327 24.398163 57.798326 55.142368v12.37263c0 30.744205-19.322764 53.972067-46.956404 54.982642h-9.870255c-5.457309 0-9.876398 5.076423-9.876398 11.337482s4.637177 11.349769 12.205737 11.33953h10.240901c37.186491 0 67.327627-33.78412 67.327627-75.460348v-16.769194c0-41.676228-29.542163-76.163758-66.726606-76.163758H715.72963z" fill="" /></svg>