<svg width="278" height="84" viewBox="0 0 278 84" fill="none" xmlns="http://www.w3.org/2000/svg">
<g clip-path="url(#clip0_184_3)">
<rect width="278" height="84" fill="white"/>
<path d="M15.7523 63.7513C15.7597 62.116 17.1693 60.7378 18.8325 60.7378C18.8351 60.7378 18.8379 60.7378 18.8409 60.7378C20.5067 60.7424 21.9143 62.1323 21.9143 63.7728C21.9143 64.6009 21.5967 65.3739 21.0205 65.9492C20.4412 66.5278 19.6613 66.8462 18.8244 66.8462C18.8226 66.8462 18.8212 66.8462 18.8194 66.8462C17.9873 66.845 17.2133 66.5264 16.6395 65.9492C16.0632 65.3699 15.7484 64.5892 15.7523 63.7515V63.7513ZM25.8898 46.8802C27.7585 45.5989 29.627 44.3187 31.4983 43.0413C33.3984 43.0316 35.3005 43.0316 37.2361 43.0328H37.3233V46.8802H25.8898ZM2.00007 61.4504C2.01156 64.779 4.53819 67.323 7.87714 67.3681C9.04494 67.3834 10.3687 67.4018 11.6739 67.3597C11.686 67.3591 11.6971 67.3589 11.7076 67.3587C11.7122 67.3669 11.7165 67.3758 11.7217 67.3853C13.1835 70.2551 15.6402 71.7715 18.8254 71.7717C18.8304 71.7717 18.8343 71.7717 18.8395 71.7717C22.0267 71.7677 24.4881 70.2428 25.9609 67.3611C36.6237 67.3798 45.4532 67.3786 53.741 67.3576C53.7412 67.3582 54.4 67.3587 55.0005 67.3591L56.082 69.9997C56.472 70.5864 56.8212 71.2663 57.1323 72.0441C58.3036 74.9698 60.2013 77.6111 61.8354 80.3429C63.148 82.5374 65.6168 82.6267 66.8626 80.4966C74.5477 67.3554 82.5661 54.4025 89.665 40.928C96.656 27.6574 92.3282 11.611 79.7483 3.49603C61.517 -8.26455 36.8729 4.37202 35.7878 26.0378C35.7765 26.2692 35.7767 26.5013 35.7737 26.733C35.7358 29.8139 37.2975 30.9514 40.1986 29.9565C41.0432 29.1563 41.2922 28.1771 41.3621 27.0174C41.821 19.4252 44.6886 13.1243 51.3153 8.90658C51.8651 7.92176 52.9065 7.60055 53.8103 7.13806C62.7581 2.56038 73.5623 4.22472 80.593 11.2331C87.7413 18.3582 89.5171 29.1196 84.8386 38.1303C79.9345 47.5752 74.3782 56.656 69.0191 65.8457C67.5266 68.4047 66.0066 70.9477 64.3819 73.6966C63.4251 71.9426 62.5979 70.426 61.7707 68.9095C59.502 65.0406 57.1847 61.1989 54.9882 57.2892C54.086 55.6833 52.9412 54.8569 51.0824 55.1938C50.7607 55.3931 50.4907 55.5952 50.2664 55.7992L52.9936 62.4581C52.2776 62.4579 50.8679 62.383 50.8679 62.383H48.8975H47.4087H42.3109H42.3089H40.919H38.7789H37.3876H32.7719L26.6374 62.46C25.1319 57.046 21.6362 55.8427 18.881 55.8214C18.8562 55.8214 18.831 55.8214 18.8059 55.8214C16.0447 55.8214 12.5689 57.0063 11.0414 62.3926C10.9547 62.3939 10.8677 62.3951 10.7808 62.3963C9.6509 62.412 8.58225 62.4269 7.52126 62.3461C7.47874 62.327 7.41042 62.2844 7.33062 62.2218C9.40102 61.2946 11.2471 59.786 12.9632 57.6211C13.5738 56.8503 13.7236 55.9013 13.3637 55.0824C13.172 54.6459 12.8556 54.2884 12.4516 54.0347C14.2489 53.4178 16.089 52.8528 17.8785 52.3037L19.3052 51.8647C19.3546 51.8555 19.5416 51.8609 19.6659 51.8647C19.7671 51.8678 19.8634 51.8579 19.967 51.8704C24.3583 51.8682 28.7498 51.8674 33.1414 51.8666L39.1297 51.8656C40.0565 51.8654 40.9422 51.8122 41.5927 51.1739C42.2535 50.5257 42.3071 49.6446 42.3061 48.7231L42.3057 46.0892C42.3065 44.3667 42.3069 42.6441 42.3004 40.9213C42.2976 40.238 42.2174 40.0957 41.9596 39.6604C42.5759 39.5429 43.196 39.4474 43.8225 39.369C45.8362 39.3319 47.8498 39.2798 49.8636 39.2648C55.1272 39.2261 60.4038 39.4234 65.6517 39.12C71.6001 38.776 76.2219 33.2757 76.0436 27.2749C75.8606 21.1244 70.836 16.1354 64.6435 15.9559C58.6725 15.7826 53.324 20.4945 52.7874 26.4007C52.4914 29.6601 54.0336 30.9744 57.1164 30.0899C58.0555 29.1928 58.2508 28.0588 58.3838 26.807C58.7161 23.6789 61.5784 21.3235 64.6381 21.4982C67.8646 21.6824 70.3966 24.2876 70.4664 27.4954C70.5369 30.7183 68.1068 33.4388 64.8561 33.6236C63.0727 33.7249 61.277 33.6117 59.4865 33.5951C53.4363 33.6064 61.2643 33.6175 55.2141 33.6286L55.1313 33.6697H54.8602C54.6029 33.6701 54.3455 33.6705 54.0882 33.6711C52.5168 33.6737 50.9457 33.6765 49.3743 33.6661C42.2527 33.6217 35.6421 35.2133 29.7225 38.4032C25.4187 40.722 21.6952 43.7468 17.944 46.9024C17.7118 47.0974 17.415 47.2625 17.1296 47.3552C16.2242 47.649 15.2908 47.9317 14.388 48.2056C13.1007 48.5957 11.7695 48.9992 10.4644 49.4502C5.46235 51.1778 1.98173 56.1125 2.00007 61.4504Z" stroke="#FFE147" stroke-width="2.66667" stroke-miterlimit="10"/>
<path d="M15.7523 63.7513C15.7597 62.116 17.1693 60.7378 18.8325 60.7378C18.8351 60.7378 18.8379 60.7378 18.8409 60.7378C20.5067 60.7424 21.9143 62.1323 21.9143 63.7728C21.9143 64.6009 21.5967 65.3739 21.0205 65.9492C20.4412 66.5278 19.6613 66.8462 18.8244 66.8462C18.8226 66.8462 18.8212 66.8462 18.8194 66.8462C17.9873 66.845 17.2133 66.5264 16.6395 65.9492C16.0632 65.3699 15.7484 64.5892 15.7523 63.7515V63.7513ZM25.8898 46.8802C27.7585 45.5989 29.627 44.3187 31.4983 43.0413C33.3984 43.0316 35.3005 43.0316 37.2361 43.0328H37.3233V46.8802H25.8898ZM2.00007 61.4504C2.01156 64.779 4.53819 67.323 7.87714 67.3681C9.04494 67.3834 10.3687 67.4018 11.6739 67.3597C11.686 67.3591 11.6971 67.3589 11.7076 67.3587C11.7122 67.3669 11.7165 67.3758 11.7217 67.3853C13.1835 70.2551 15.6402 71.7715 18.8254 71.7717C18.8304 71.7717 18.8343 71.7717 18.8395 71.7717C22.0267 71.7677 24.4881 70.2428 25.9609 67.3611C36.6237 67.3798 45.4532 67.3786 53.741 67.3576C53.7412 67.3582 54.4 67.3587 55.0005 67.3591L56.082 69.9997C56.472 70.5864 56.8212 71.2663 57.1323 72.0441C58.3036 74.9698 60.2013 77.6111 61.8354 80.3429C63.148 82.5374 65.6168 82.6267 66.8626 80.4966C74.5477 67.3554 82.5661 54.4025 89.665 40.928C96.656 27.6574 92.3282 11.611 79.7483 3.49603C61.517 -8.26455 36.8729 4.37202 35.7878 26.0378C35.7765 26.2692 35.7767 26.5013 35.7737 26.733C35.7358 29.8139 37.2975 30.9514 40.1986 29.9565C41.0432 29.1563 41.2922 28.1771 41.3621 27.0174C41.821 19.4252 44.6886 13.1243 51.3153 8.90658C51.8651 7.92176 52.9065 7.60055 53.8103 7.13806C62.7581 2.56038 73.5623 4.22472 80.593 11.2331C87.7413 18.3582 89.5171 29.1196 84.8386 38.1303C79.9345 47.5752 74.3782 56.656 69.0191 65.8457C67.5266 68.4047 66.0066 70.9477 64.3819 73.6966C63.4251 71.9426 62.5979 70.426 61.7707 68.9095C59.502 65.0406 57.1847 61.1989 54.9882 57.2892C54.086 55.6833 52.9412 54.8569 51.0824 55.1938C50.7607 55.3931 50.4907 55.5952 50.2664 55.7992L52.9936 62.4581C52.2776 62.4579 50.8679 62.383 50.8679 62.383H48.8975H47.4087H42.3109H42.3089H40.919H38.7789H37.3876H32.7719L26.6374 62.46C25.1319 57.046 21.6362 55.8427 18.881 55.8214C18.8562 55.8214 18.831 55.8214 18.8059 55.8214C16.0447 55.8214 12.5689 57.0063 11.0414 62.3926C10.9547 62.3939 10.8677 62.3951 10.7808 62.3963C9.6509 62.412 8.58225 62.4269 7.52126 62.3461C7.47874 62.327 7.41042 62.2844 7.33062 62.2218C9.40102 61.2946 11.2471 59.786 12.9632 57.6211C13.5738 56.8503 13.7236 55.9013 13.3637 55.0824C13.172 54.6459 12.8556 54.2884 12.4516 54.0347C14.2489 53.4178 16.089 52.8528 17.8785 52.3037L19.3052 51.8647C19.3546 51.8555 19.5416 51.8609 19.6659 51.8647C19.7671 51.8678 19.8634 51.8579 19.967 51.8704C24.3583 51.8682 28.7498 51.8674 33.1414 51.8666L39.1297 51.8656C40.0565 51.8654 40.9422 51.8122 41.5927 51.1739C42.2535 50.5257 42.3071 49.6446 42.3061 48.7231L42.3057 46.0892C42.3065 44.3667 42.3069 42.6441 42.3004 40.9213C42.2976 40.238 42.2174 40.0957 41.9596 39.6604C42.5759 39.5429 43.196 39.4474 43.8225 39.369C45.8362 39.3319 47.8498 39.2798 49.8636 39.2648C55.1272 39.2261 60.4038 39.4234 65.6517 39.12C71.6001 38.776 76.2219 33.2757 76.0436 27.2749C75.8606 21.1244 70.836 16.1354 64.6435 15.9559C58.6725 15.7826 53.324 20.4945 52.7874 26.4007C52.4914 29.6601 54.0336 30.9744 57.1164 30.0899C58.0555 29.1928 58.2508 28.0588 58.3838 26.807C58.7161 23.6789 61.5784 21.3235 64.6381 21.4982C67.8646 21.6824 70.3966 24.2876 70.4664 27.4954C70.5369 30.7183 68.1068 33.4388 64.8561 33.6236C63.0727 33.7249 61.277 33.6117 59.4865 33.5951C53.4363 33.6064 61.2643 33.6175 55.2141 33.6286L55.1313 33.6697H54.8602C54.6029 33.6701 54.3455 33.6705 54.0882 33.6711C52.5168 33.6737 50.9457 33.6765 49.3743 33.6661C42.2527 33.6217 35.6421 35.2133 29.7225 38.4032C25.4187 40.722 21.6952 43.7468 17.944 46.9024C17.7118 47.0974 17.415 47.2625 17.1296 47.3552C16.2242 47.649 15.2908 47.9317 14.388 48.2056C13.1007 48.5957 11.7695 48.9992 10.4644 49.4502C5.46235 51.1778 1.98173 56.1125 2.00007 61.4504Z" fill="#FFE147"/>
<path d="M157.72 26.3363C157.72 18.493 152.684 13.7434 146.423 13.7434C140.162 13.7434 135.126 18.493 135.126 26.3363C135.126 34.1792 140.162 38.9285 146.423 38.9285C152.684 38.9285 157.72 34.1792 157.72 26.3363ZM118 26.3363C118 11.0809 130.017 2.05583e-05 146.423 2.05583e-05C162.829 2.05583e-05 174.846 11.0809 174.846 26.3363C174.846 41.5906 162.829 52.6722 146.423 52.6722C130.017 52.6722 118 41.5906 118 26.3363Z" fill="#242424"/>
<path d="M204.491 33.2442V51.5208H187.509V33.0281L168.513 1.15137H186.43L196.72 18.5646L207.082 1.15137H223.487L204.491 33.2442Z" fill="#242424"/>
<path d="M256.875 26.3363C256.875 18.493 251.838 13.7434 245.577 13.7434C239.317 13.7434 234.28 18.493 234.28 26.3363C234.28 34.1792 239.317 38.9285 245.577 38.9285C251.838 38.9285 256.875 34.1792 256.875 26.3363ZM217.154 26.3363C217.154 11.0809 229.172 2.05583e-05 245.577 2.05583e-05C261.983 2.05583e-05 274 11.0809 274 26.3363C274 41.5906 261.983 52.6722 245.577 52.6722C229.172 52.6722 217.154 41.5906 217.154 26.3363Z" fill="#242424"/>
<path d="M141.51 82.4264L141.476 66.3111L133.487 79.6475H131.473L123.485 66.5196V82.4264H119.178V58.1147H122.894L132.55 74.23L142.031 58.1147H145.747L145.782 82.4264H141.51Z" fill="#242424"/>
<path d="M172.593 70.2706C172.593 65.3038 168.947 61.7266 164.05 61.7266C159.152 61.7266 155.506 65.3038 155.506 70.2706C155.506 75.2373 159.152 78.8142 164.05 78.8142C168.947 78.8142 172.593 75.2373 172.593 70.2706ZM150.956 70.2706C150.956 63.0811 156.512 57.7671 164.05 57.7671C171.586 57.7671 177.143 63.0462 177.143 70.2706C177.143 77.4946 171.586 82.7737 164.05 82.7737C156.512 82.7737 150.956 77.46 150.956 70.2706Z" fill="#242424"/>
<path d="M203.747 58.1147L193.154 82.4264H188.708L178.081 58.1147H182.978L191.07 76.8694L199.232 58.1147H203.747Z" fill="#242424"/>
<path d="M224.897 78.6409V82.4264H206.663V58.1147H224.411V61.9005H211.178V68.2211H222.917V71.9375H211.178V78.6409H224.897Z" fill="#242424"/>
<path d="M240.074 61.9347H234.795V71.6251H240.074C244.033 71.6251 246.083 69.8187 246.083 66.7626C246.083 63.7059 244.033 61.9347 240.074 61.9347ZM246.187 82.4264L241.22 75.307C240.908 75.3412 240.595 75.3412 240.282 75.3412H234.795V82.4264H230.28V58.1147H240.282C246.673 58.1147 250.632 61.3792 250.632 66.7626C250.632 70.4438 248.757 73.153 245.458 74.4381L251.049 82.4264H246.187Z" fill="#242424"/>
<path d="M253.965 79.8564L255.528 76.3485C257.473 77.9112 260.564 79.0224 263.551 79.0224C267.336 79.0224 268.934 77.6685 268.934 75.8621C268.934 70.6178 254.486 74.056 254.486 65.026C254.486 61.1014 257.612 57.7671 264.281 57.7671C267.198 57.7671 270.254 58.5314 272.373 59.9201L270.949 63.4287C268.76 62.1432 266.365 61.5181 264.246 61.5181C260.495 61.5181 258.967 62.9768 258.967 64.8175C258.967 69.9927 273.38 66.6235 273.38 75.5497C273.38 79.4391 270.22 82.7737 263.551 82.7737C259.765 82.7737 255.98 81.5931 253.965 79.8564Z" fill="#242424"/>
</g>
<defs>
<clipPath id="clip0_184_3">
<rect width="278" height="84" fill="white"/>
</clipPath>
</defs>
</svg>
