<svg width="168" height="341" viewBox="0 0 168 341" fill="none" xmlns="http://www.w3.org/2000/svg">
<path d="M18.5902 0.512238C14.0937 1.08145 8.97092 3.24435 6.23881 5.80576C3.73435 8.19632 1.28684 13.376 0.489968 18.0433C0.0915302 20.7754 -0.0792462 64.7169 0.0346454 172.977L0.205361 324.097L1.68528 327.911C2.48216 329.96 3.96201 332.692 4.92967 333.887C7.03568 336.562 12.1015 339.351 16.3135 340.262C18.4194 340.717 38.6257 340.888 83.1364 340.888C151.667 340.888 150.187 340.945 155.936 338.042C158.839 336.505 162.425 332.293 163.961 328.423L165.271 325.235L165.441 257.331C165.555 197.964 165.669 189.483 166.409 189.483C167.718 189.483 167.661 147.648 166.409 147.136C165.726 146.908 165.555 145.599 165.555 140.249C165.555 134.784 165.726 133.703 166.409 133.703C167.149 133.703 167.263 132.166 167.263 123.457C167.263 114.806 167.149 113.212 166.409 113.212C165.726 113.212 165.555 106.894 165.441 64.66C165.271 19.0109 165.214 15.9943 164.189 13.2621C161.514 5.80576 155.765 1.59372 146.772 0.512238C141.08 -0.170746 24.4529 -0.170746 18.5902 0.512238ZM159.863 172.977V309.583H82.738H5.61265V172.977V36.3712H82.738H159.863V172.977Z" fill="black"/>
<path d="M64.6705 145.604C64.6705 142.115 62.4301 140.002 59.645 140.002C56.86 140.002 54.6194 142.115 54.6194 145.604C54.6194 149.093 56.86 151.206 59.645 151.206C62.4301 151.206 64.6705 149.093 64.6705 145.604ZM47.001 145.604C47.001 138.818 52.3467 133.888 59.645 133.888C66.9431 133.888 72.2889 138.818 72.2889 145.604C72.2889 152.39 66.9431 157.32 59.645 157.32C52.3467 157.32 47.001 152.39 47.001 145.604Z" fill="#242424"/>
<path d="M85.4766 148.677V156.807H77.9222V148.581L69.4717 134.4H77.442L82.0196 142.147L86.6291 134.4H93.9272L85.4766 148.677Z" fill="#242424"/>
<path d="M108.78 145.604C108.78 142.115 106.539 140.002 103.754 140.002C100.969 140.002 98.7289 142.115 98.7289 145.604C98.7289 149.093 100.969 151.206 103.754 151.206C106.539 151.206 108.78 149.093 108.78 145.604ZM91.1104 145.604C91.1104 138.818 96.4563 133.888 103.754 133.888C111.053 133.888 116.398 138.818 116.398 145.604C116.398 152.39 111.053 157.32 103.754 157.32C96.4563 157.32 91.1104 152.39 91.1104 145.604Z" fill="#242424"/>
<path d="M57.4597 170.556L57.4445 163.387L53.8909 169.32H52.9947L49.4412 163.48V170.556H47.5254V159.741H49.1785L53.4738 166.91L57.6914 159.741H59.3447L59.3603 170.556H57.4597Z" fill="#242424"/>
<path d="M71.2874 165.148C71.2874 162.939 69.6653 161.347 67.4869 161.347C65.3083 161.347 63.6861 162.939 63.6861 165.148C63.6861 167.358 65.3083 168.949 67.4869 168.949C69.6653 168.949 71.2874 167.358 71.2874 165.148ZM61.6621 165.148C61.6621 161.95 64.134 159.586 67.4869 159.586C70.8395 159.586 73.3115 161.935 73.3115 165.148C73.3115 168.362 70.8395 170.71 67.4869 170.71C64.134 170.71 61.6621 168.347 61.6621 165.148Z" fill="#242424"/>
<path d="M85.1462 159.741L80.4338 170.556H78.4562L73.7285 159.741H75.9071L79.5071 168.084L83.1379 159.741H85.1462Z" fill="#242424"/>
<path d="M94.5549 168.872V170.556H86.4434V159.741H94.3385V161.425H88.452V164.237H93.6742V165.89H88.452V168.872H94.5549Z" fill="#242424"/>
<path d="M101.306 161.44H98.9578V165.751H101.306C103.067 165.751 103.979 164.947 103.979 163.588C103.979 162.228 103.067 161.44 101.306 161.44ZM104.026 170.556L101.816 167.389C101.677 167.404 101.538 167.404 101.399 167.404H98.9578V170.556H96.9492V159.741H101.399C104.242 159.741 106.003 161.193 106.003 163.588C106.003 165.225 105.169 166.431 103.701 167.002L106.188 170.556H104.026Z" fill="#242424"/>
<path d="M107.485 169.413L108.181 167.852C109.046 168.547 110.421 169.042 111.75 169.042C113.433 169.042 114.144 168.439 114.144 167.636C114.144 165.303 107.717 166.832 107.717 162.815C107.717 161.069 109.107 159.586 112.074 159.586C113.372 159.586 114.731 159.926 115.674 160.544L115.04 162.105C114.067 161.533 113.001 161.255 112.059 161.255C110.39 161.255 109.71 161.904 109.71 162.722C109.71 165.025 116.122 163.526 116.122 167.497C116.122 169.227 114.716 170.71 111.75 170.71C110.065 170.71 108.382 170.185 107.485 169.413Z" fill="#242424"/>
</svg>
